<svg xmlns="http://www.w3.org/2000/svg" viewBox="0 0 1600 900" width="1600" height="900">
  <defs>
    <linearGradient id="bg4" x1="0%" y1="0%" x2="100%" y2="100%">
      <stop offset="0%" stop-color="#fafaf8"/>
      <stop offset="100%" stop-color="#f5f0e8"/>
    </linearGradient>
    <filter id="softShadow" x="-20%" y="-20%" width="140%" height="140%">
      <feDropShadow dx="0" dy="4" stdDeviation="12" flood-color="#000" flood-opacity="0.08"/>
    </filter>
  </defs>

  <rect width="1600" height="900" fill="url(#bg4)"/>

  <g opacity="0.07">
    <circle cx="160" cy="180" r="6" fill="#2d2d2a"/>
    <circle cx="140" cy="220" r="4" fill="#2d2d2a"/>
    <circle cx="200" cy="200" r="3" fill="#2d2d2a"/>
    <circle cx="1440" cy="720" r="5" fill="#2d2d2a"/>
    <circle cx="1480" cy="680" r="4" fill="#2d2d2a"/>
    <circle cx="1420" cy="750" r="3" fill="#2d2d2a"/>
    <circle cx="120" cy="720" r="4" fill="#2d2d2a"/>
    <circle cx="1500" cy="180" r="5" fill="#2d2d2a"/>
  </g>

  <g transform="translate(800, 470)">
    <g stroke="#e87b35" stroke-width="1.5" fill="none" opacity="0.25">
      <line x1="0" y1="-60" x2="-260" y2="-200"/>
      <line x1="0" y1="-60" x2="260" y2="-200"/>
      <line x1="0" y1="-60" x2="-400" y2="-30"/>
      <line x1="0" y1="-60" x2="400" y2="-30"/>
      <line x1="0" y1="60" x2="-280" y2="200"/>
      <line x1="0" y1="60" x2="280" y2="200"/>
      <line x1="0" y1="60" x2="-420" y2="50"/>
      <line x1="0" y1="60" x2="420" y2="50"/>
      <line x1="-260" y1="-200" x2="-400" y2="-30"/>
      <line x1="260" y1="-200" x2="400" y2="-30"/>
      <line x1="-280" y1="200" x2="-420" y2="50"/>
      <line x1="280" y1="200" x2="420" y2="50"/>
    </g>

    <g transform="translate(0, 0)">
      <circle r="72" fill="#ffffff" stroke="#e87b35" stroke-width="3" filter="url(#softShadow)"/>
      <g transform="translate(0, 0)" fill="none" stroke="#e87b35" stroke-width="2" stroke-linecap="round">
        <path d="M -28,-12 C -36,-32 -14,-46 0,-40 C 14,-46 36,-32 28,-12"/>
        <path d="M -24,0 C -32,-16 -12,-30 0,-24 C 12,-30 32,-16 24,0"/>
        <path d="M -20,12 C -28,0 -10,-14 0,-8 C 10,-14 28,0 20,12"/>
        <path d="M -12,24 C -20,10 -6,0 0,6 C 6,0 20,10 12,24"/>
      </g>
      <text y="100" text-anchor="middle" font-family="system-ui, sans-serif" font-size="14" font-weight="700" fill="#e87b35">Orchestrator</text>
    </g>

    <g transform="translate(-260, -200)">
      <circle r="44" fill="#ffffff" stroke="#d0d0cc" stroke-width="2" filter="url(#softShadow)"/>
      <g stroke="#e87b35" stroke-width="2" fill="none" stroke-linecap="round">
        <path d="M -14,-6 L 0,-18 L 14,-6"/>
        <path d="M -14,4 L 0,16 L 14,4"/>
      </g>
      <text y="62" text-anchor="middle" font-family="system-ui, sans-serif" font-size="13" font-weight="600" fill="#2d2d2a">Planner</text>
    </g>

    <g transform="translate(260, -200)">
      <circle r="44" fill="#ffffff" stroke="#d0d0cc" stroke-width="2" filter="url(#softShadow)"/>
      <g fill="none" stroke="#e87b35" stroke-width="2" stroke-linecap="round">
        <rect x="-16" y="-16" width="32" height="32" rx="4"/>
        <line x1="-16" y1="-5" x2="16" y2="-5"/>
        <line x1="-16" y1="5" x2="16" y2="5"/>
      </g>
      <text y="62" text-anchor="middle" font-family="system-ui, sans-serif" font-size="13" font-weight="600" fill="#2d2d2a">Coder</text>
    </g>

    <g transform="translate(-400, -30)">
      <circle r="44" fill="#ffffff" stroke="#d0d0cc" stroke-width="2" filter="url(#softShadow)"/>
      <g fill="none" stroke="#e87b35" stroke-width="2">
        <ellipse cx="0" cy="-10" rx="16" ry="5" fill="#fff5ee"/>
        <path d="M -16,-10 L -16,12 A 16,5 0 0,0 16,12 L 16,-10"/>
        <line x1="-16" y1="0" x2="16" y2="0"/>
      </g>
      <text y="62" text-anchor="middle" font-family="system-ui, sans-serif" font-size="13" font-weight="600" fill="#2d2d2a">Memory</text>
    </g>

    <g transform="translate(400, -30)">
      <circle r="44" fill="#ffffff" stroke="#d0d0cc" stroke-width="2" filter="url(#softShadow)"/>
      <g fill="none" stroke="#e87b35" stroke-width="2" stroke-linecap="round">
        <path d="M -16,-12 L 16,-12 L 16,8 L 0,20 L -16,8 Z" fill="#fff5ee"/>
        <circle cx="0" cy="-2" r="4" fill="#e87b35"/>
      </g>
      <text y="62" text-anchor="middle" font-family="system-ui, sans-serif" font-size="13" font-weight="600" fill="#2d2d2a">Tools</text>
    </g>

    <g transform="translate(-280, 200)">
      <circle r="44" fill="#ffffff" stroke="#d0d0cc" stroke-width="2" filter="url(#softShadow)"/>
      <g stroke="#e87b35" stroke-width="2" fill="none" stroke-linecap="round">
        <path d="M -14,10 L 0,-10 L 14,10"/>
        <line x1="-16" y1="14" x2="16" y2="14"/>
      </g>
      <text y="62" text-anchor="middle" font-family="system-ui, sans-serif" font-size="13" font-weight="600" fill="#2d2d2a">Reviewer</text>
    </g>

    <g transform="translate(280, 200)">
      <circle r="44" fill="#ffffff" stroke="#d0d0cc" stroke-width="2" filter="url(#softShadow)"/>
      <g fill="none" stroke="#e87b35" stroke-width="2" stroke-linecap="round">
        <path d="M -14,-4 L -4,-14 L 10,6 L -6,16 Z" fill="#fff5ee"/>
        <line x1="-8" y1="12" x2="-16" y2="20"/>
      </g>
      <text y="62" text-anchor="middle" font-family="system-ui, sans-serif" font-size="13" font-weight="600" fill="#2d2d2a">Writer</text>
    </g>

    <g transform="translate(-420, 50)">
      <circle r="36" fill="#ffffff" stroke="#e8e6e0" stroke-width="2" filter="url(#softShadow)"/>
      <circle cx="0" cy="0" r="12" fill="#e87b35" opacity="0.7"/>
      <text y="52" text-anchor="middle" font-family="system-ui, sans-serif" font-size="12" font-weight="500" fill="#6b6b68">Critic</text>
    </g>

    <g transform="translate(420, 50)">
      <circle r="36" fill="#ffffff" stroke="#e8e6e0" stroke-width="2" filter="url(#softShadow)"/>
      <circle cx="0" cy="0" r="12" fill="#e87b35" opacity="0.7"/>
      <text y="52" text-anchor="middle" font-family="system-ui, sans-serif" font-size="12" font-weight="500" fill="#6b6b68">Executor</text>
    </g>
  </g>

  <g transform="translate(800, 110)">
    <text text-anchor="middle" font-family="Georgia, serif" font-size="22" fill="#e87b35" letter-spacing="6">AGENT INIT 04</text>
  </g>

  <g transform="translate(800, 830)" opacity="0.5">
    <text text-anchor="middle" font-family="system-ui, sans-serif" font-size="16" fill="#6b6b68">Multi-Agent Collaboration</text>
  </g>
</svg>
